<svg width="120" height="40" viewBox="0 0 120 40" fill="none" xmlns="http://www.w3.org/2000/svg">
<g clip-path="url(#clip0_18_172)">
<g clip-path="url(#clip1_18_172)">
<path d="M107.097 0.5H12.9032C6.05311 0.5 0.5 6.05311 0.5 12.9032V27.0968C0.5 33.9469 6.05311 39.5 12.9032 39.5H107.097C113.947 39.5 119.5 33.9469 119.5 27.0968V12.9032C119.5 6.05311 113.947 0.5 107.097 0.5Z" fill="white"/>
<path d="M107.097 0.5H12.9032C6.05311 0.5 0.5 6.05311 0.5 12.9032V27.0968C0.5 33.9469 6.05311 39.5 12.9032 39.5H107.097C113.947 39.5 119.5 33.9469 119.5 27.0968V12.9032C119.5 6.05311 113.947 0.5 107.097 0.5Z" stroke="black"/>
<path d="M81.5252 14.9756V17.2666H80.0897V18.7691H81.5252V23.874C81.5252 25.6172 82.3142 26.3145 84.2981 26.3145C84.6465 26.3145 84.9788 26.273 85.2691 26.2232V24.7373C85.02 24.7622 84.8626 24.7788 84.5884 24.7788C83.7 24.7788 83.3104 24.3638 83.3104 23.4175V18.7691H85.2691V17.2666H83.3104V14.9756H81.5252Z" fill="black"/>
<path d="M90.3233 26.4385C92.9626 26.4385 94.5813 24.6704 94.5813 21.7402C94.5813 18.8267 92.9542 17.0503 90.3233 17.0503C87.6833 17.0503 86.0562 18.8267 86.0562 21.7402C86.0562 24.6704 87.6749 26.4385 90.3233 26.4385ZM90.3233 24.853C88.771 24.853 87.8994 23.7158 87.8994 21.7402C87.8994 19.7813 88.771 18.6357 90.3233 18.6357C91.8671 18.6357 92.7465 19.7813 92.7465 21.7402C92.7465 23.7075 91.8671 24.853 90.3233 24.853Z" fill="black"/>
<path d="M95.9658 26.2642H97.751V20.9267C97.751 19.6567 98.7052 18.8018 100.059 18.8018C100.374 18.8018 100.905 18.8598 101.054 18.9096V17.1499C100.864 17.1001 100.523 17.0752 100.257 17.0752C99.0787 17.0752 98.0742 17.7227 97.8174 18.6108H97.6845V17.2246H95.9658V26.2642Z" fill="black"/>
<path d="M105.486 18.5693C106.806 18.5693 107.669 19.4907 107.71 20.9102H103.145C103.245 19.499 104.166 18.5693 105.486 18.5693ZM107.702 23.8237C107.37 24.5293 106.631 24.9195 105.552 24.9195C104.125 24.9195 103.203 23.9151 103.145 22.3296V22.23H109.528V21.6074C109.528 18.7685 108.009 17.0503 105.494 17.0503C102.946 17.0503 101.327 18.8847 101.327 21.7735C101.327 24.6621 102.912 26.4385 105.503 26.4385C107.569 26.4385 109.014 25.4424 109.421 23.8237H107.702Z" fill="black"/>
<path d="M69.8219 22.9261C69.9593 25.1459 71.809 26.5654 74.5625 26.5654C77.5045 26.5654 79.3458 25.0771 79.3458 22.7025C79.3458 20.8355 78.2961 19.8031 75.7496 19.2094L74.3819 18.8739C72.7645 18.4954 72.1103 17.9878 72.1103 17.1016C72.1103 15.9831 73.1258 15.2518 74.6484 15.2518C76.0935 15.2518 77.0916 15.966 77.2722 17.1102H79.1477C79.0361 15.0196 77.1948 13.5483 74.6742 13.5483C71.9638 13.5483 70.1574 15.0196 70.1574 17.2307C70.1574 19.0546 71.1813 20.1387 73.4264 20.6634L75.0271 21.0506C76.6703 21.4378 77.3929 22.0056 77.3929 22.952C77.3929 24.0532 76.2574 24.8534 74.7083 24.8534C73.0483 24.8534 71.8954 24.1049 71.7316 22.9261H69.8219Z" fill="black"/>
<path d="M51.3345 17.0752C50.1059 17.0752 49.0435 17.6895 48.4956 18.7187H48.3628V17.2246H46.6445V29.2691H48.4292V24.8945H48.5703C49.0435 25.8491 50.0645 26.4136 51.3511 26.4136C53.6338 26.4136 55.0865 24.6123 55.0865 21.7402C55.0865 18.8682 53.6338 17.0752 51.3345 17.0752ZM50.8281 24.8115C49.334 24.8115 48.396 23.6328 48.396 21.7486C48.396 19.856 49.334 18.6773 50.8365 18.6773C52.3472 18.6773 53.2519 19.8311 53.2519 21.7402C53.2519 23.6577 52.3472 24.8115 50.8281 24.8115Z" fill="black"/>
<path d="M61.3313 17.0752C60.1028 17.0752 59.0403 17.6895 58.4924 18.7187H58.3596V17.2246H56.6414V29.2691H58.426V24.8945H58.5671C59.0403 25.8491 60.0613 26.4136 61.3479 26.4136C63.6306 26.4136 65.0832 24.6123 65.0832 21.7402C65.0832 18.8682 63.6306 17.0752 61.3313 17.0752ZM60.8249 24.8115C59.3308 24.8115 58.3928 23.6328 58.3928 21.7486C58.3928 19.856 59.3308 18.6773 60.8332 18.6773C62.344 18.6773 63.2488 19.8311 63.2488 21.7402C63.2488 23.6577 62.344 24.8115 60.8249 24.8115Z" fill="black"/>
<path d="M43.4426 26.2645H45.4902L41.0078 13.8496H38.9344L34.4519 26.2645H36.4307L37.575 22.9694H42.3069L43.4426 26.2645ZM39.8721 16.1037H40.0184L41.8165 21.3519H38.0654L39.8721 16.1037Z" fill="black"/>
<path d="M24.769 20.3008C24.7907 18.6198 25.6934 17.0292 27.1256 16.1488C26.2221 14.8584 24.7088 14.0403 23.1344 13.9911C21.4551 13.8148 19.8272 14.9959 18.9715 14.9959C18.0992 14.9959 16.7817 14.0086 15.363 14.0377C13.5137 14.0975 11.7898 15.1489 10.8901 16.7656C8.95608 20.114 10.3987 25.0351 12.2512 27.7417C13.1781 29.067 14.2614 30.5475 15.6789 30.495C17.0659 30.4375 17.584 29.6105 19.2583 29.6105C20.917 29.6105 21.403 30.495 22.8493 30.4616C24.3377 30.4375 25.2754 29.1304 26.1698 27.7925C26.8358 26.8481 27.3482 25.8044 27.6882 24.7C25.9391 23.9602 24.771 22.1999 24.769 20.3008Z" fill="black"/>
<path d="M22.0373 12.2109C22.8488 11.2366 23.2486 9.98447 23.1518 8.72021C21.912 8.85041 20.7667 9.44299 19.9442 10.3798C19.1399 11.2952 18.7214 12.5253 18.8005 13.7412C20.0408 13.754 21.2601 13.1775 22.0373 12.2109Z" fill="black"/>
</g>
</g>
<defs>
<clipPath id="clip0_18_172">
<rect width="120" height="40" fill="white"/>
</clipPath>
<clipPath id="clip1_18_172">
<rect width="120" height="40" fill="white"/>
</clipPath>
</defs>
</svg>
