<svg width="160" height="30" viewBox="0 0 180 33" fill="none" xmlns="http://www.w3.org/2000/svg">
<g id="image 35_layerstyle">
<g id="Group">
<g id="Vector">
<path d="M162.256 9.43155C163.307 8.83602 164.638 8.27553 165.199 8.13541C165.759 7.96026 167.336 7.92523 168.702 7.99529C170.243 8.10038 171.82 8.48572 172.905 8.97615C173.851 9.43155 175.218 10.2723 175.883 10.8678C176.549 11.4283 177.6 12.6894 178.23 13.6352C178.861 14.5811 179.491 15.8772 179.912 17.6287H177.88C176.093 17.6287 175.883 17.5587 175.708 16.8581C175.638 16.4027 175.042 15.4218 174.377 14.6511C173.676 13.8104 172.415 12.8996 171.294 12.4092C169.858 11.7786 168.947 11.6385 167.476 11.7436C166.215 11.8136 164.954 12.199 163.903 12.8295C162.817 13.4251 161.801 14.4059 159.944 17.3135L158.648 15.8071C157.947 14.9664 157.352 14.1957 157.317 14.0556C157.317 13.8805 158.017 13.0397 158.858 12.1289C159.699 11.1831 161.24 9.99204 162.256 9.43155Z" fill="white"/>
<path d="M125.789 12.0238V10.0971V8.17044H142.604L138.926 13.5301L139.977 14.2658C140.537 14.6511 141.448 15.4919 141.973 16.0524C142.534 16.6479 142.954 17.2084 142.954 17.3835C142.954 17.5236 141.903 17.5587 140.572 17.4536C139.276 17.3485 136.298 17.1733 133.951 17.1033C131.429 16.9982 129.643 16.788 129.643 16.5778C129.643 16.4027 130.799 15.3167 134.722 12.199L125.789 12.0238Z" fill="white"/>
<path d="M144.075 16.9632C143.69 16.2976 143.935 15.8071 146.352 12.199L149.015 8.17044H153.463L149.925 13.2499L151.432 13.4601C152.272 13.6002 153.498 13.9155 154.164 14.1957C154.83 14.476 155.986 15.2116 156.686 15.8071C157.422 16.4377 158.017 17.1033 158.017 17.2784C158.017 17.4886 157.002 17.5587 155.285 17.4536C153.814 17.3485 151.642 17.2434 150.486 17.2434C149.33 17.2084 147.508 17.3135 146.457 17.4536C144.741 17.6638 144.496 17.5937 144.075 16.9632Z" fill="white"/>
<path d="M126.034 24.1094C125.719 22.9534 125.579 21.9025 125.649 21.7624C125.754 21.5872 126.56 21.4821 127.401 21.4821C128.802 21.4821 128.977 21.5872 128.977 22.2878C128.977 22.7082 129.292 23.7241 129.678 24.5648C130.098 25.4756 130.904 26.3864 131.814 27.017C132.935 27.7526 133.706 27.9628 135.072 27.9628C136.193 27.9628 137.279 27.6826 138.085 27.2272C138.751 26.8418 139.661 25.9661 140.117 25.3005C140.537 24.6349 141.028 23.5139 141.168 22.7783C141.413 21.4821 141.413 21.4821 144.741 21.4821L144.531 22.9884C144.426 23.7942 143.97 25.2654 143.515 26.2113C143.059 27.1921 142.078 28.4883 141.343 29.1188C140.607 29.7143 139.276 30.485 138.435 30.7653C137.559 31.0455 136.053 31.2907 135.107 31.2907C134.126 31.2907 132.725 31.0805 131.99 30.8353C131.219 30.6251 129.993 29.8545 129.222 29.1889C128.451 28.5233 127.541 27.5775 127.19 27.087C126.84 26.5966 126.315 25.2654 126.034 24.1094Z" fill="white"/>
<path d="M155.25 25.9661C155.81 25.1253 156.406 23.7942 156.511 22.9884L156.721 21.4821H159.804V22.9884C159.769 23.7942 159.419 25.2654 158.963 26.2113C158.508 27.1921 157.457 28.5934 156.581 29.364C155.705 30.1347 154.374 30.9755 153.639 31.1856C152.868 31.4309 151.327 31.641 150.171 31.641C148.699 31.641 147.543 31.3958 146.317 30.8003C145.336 30.3799 144.355 29.7494 144.11 29.4341C143.76 28.9437 143.795 28.5934 144.426 27.5424C144.846 26.8068 145.266 26.1412 145.301 26.0361C145.371 25.931 145.967 26.3864 146.632 27.017C147.543 27.8227 148.349 28.208 149.54 28.3481C150.661 28.4883 151.677 28.3832 152.693 27.9978C153.709 27.6125 154.549 26.9469 155.25 25.9661Z" fill="white"/>
<path d="M174.167 25.1603C174.832 24.3897 175.603 23.2687 175.848 22.6381C176.303 21.5522 176.409 21.5172 178.195 21.5172C180.087 21.5172 180.087 21.5172 179.877 22.463C179.772 22.9884 179.351 24.0394 179.001 24.8451C178.686 25.6157 177.775 26.9469 177.004 27.8227C176.268 28.6634 174.867 29.8194 173.921 30.3099C173.011 30.8353 171.189 31.4308 169.928 31.641C168.281 31.9213 167.16 31.9213 165.724 31.6761C164.673 31.4659 163.062 30.8704 162.116 30.3449C161.17 29.8194 160.224 29.1889 160.014 28.9437C159.699 28.5934 159.734 28.2781 160.049 27.7176C160.294 27.2622 160.645 26.4565 161.205 24.8451L162.151 25.7559C162.677 26.2813 163.833 27.017 164.673 27.4373C165.549 27.8227 166.985 28.138 167.826 28.138C168.772 28.138 170.138 27.8227 171.154 27.3323C172.135 26.8769 173.466 25.896 174.167 25.1603Z" fill="white"/>
</g>
<path id="Subtract" fill-rule="evenodd" clip-rule="evenodd" d="M30.4713 31.5763H24.6208V16.275V0.973671H30.4713V5.69908C30.4713 8.3093 30.6063 10.4245 30.7863 10.4245C31.0113 10.4245 31.9564 9.88443 32.9465 9.29938C34.1616 8.53432 35.3767 8.17429 36.7718 8.17429C37.8969 8.17429 39.607 8.53432 40.5971 8.98436C41.5872 9.43439 42.8473 10.3795 43.3424 11.1445C43.8824 11.8646 44.5575 13.2597 44.8275 14.2498C45.0975 15.2399 45.3225 19.5153 45.3225 31.5763H39.022V24.1507C39.022 19.1102 38.842 16.365 38.4819 15.5999C38.1669 14.9699 37.4468 14.2948 36.9068 14.0248C36.3218 13.7998 35.3767 13.5747 34.7466 13.5747C34.1166 13.5747 32.9465 14.1598 30.6963 16.185L30.4713 31.5763ZM95.6368 16.59C95.5918 8.3093 95.7268 1.42371 95.9519 1.2887C96.1769 1.10868 97.617 0.973671 102.027 0.973671L102.252 18.6152L110.578 8.62433H113.953C115.799 8.62433 117.329 8.71433 117.329 8.84934C117.329 8.98436 115.394 11.4146 113.053 14.2498C110.713 17.085 108.778 19.6503 108.778 19.8753C108.778 20.1003 110.893 22.8455 118.229 31.5763L111.253 31.6213L102.252 21.4504L102.027 31.5763H95.7268L95.6368 16.59ZM6.84423 8.89435C5.85415 9.20938 4.36902 10.1545 3.51395 10.9645C2.65887 11.7746 1.62379 13.2597 1.17375 14.2498C0.723709 15.2399 0.228666 17.085 0.0936547 18.3002C-0.0863607 19.5603 0.00364696 21.7654 0.27367 23.2506C0.543693 24.7807 1.30876 26.7159 2.02882 27.751C2.79389 28.8761 4.144 30.0012 5.71914 30.8112C7.69931 31.8013 8.7794 32.0263 11.2546 32.0263C12.9198 32.0263 14.9899 31.7113 15.935 31.3063C16.8801 30.9462 18.2302 30.0912 18.9053 29.4161C19.6253 28.741 20.5704 27.4359 21.0654 26.5359C21.5155 25.5908 21.9205 24.6457 21.9205 24.3757C21.9205 24.1056 20.6604 23.9256 19.0403 23.9256C16.4301 23.9256 16.025 24.0606 14.8099 25.2757C13.6848 26.3558 13.0548 26.6259 11.4796 26.6259C10.3545 26.6259 9.09442 26.3108 8.46437 25.8608C7.83432 25.4108 7.06925 24.3757 6.75422 23.6106C6.4392 22.8005 6.16917 21.2254 6.16917 20.1003C6.16917 18.9752 6.5292 17.3551 6.97924 16.455C7.38428 15.5549 8.28436 14.5198 9.00442 14.2048C9.67947 13.8448 10.7596 13.5747 11.4796 13.5747C12.1547 13.5747 13.3698 13.9798 14.1799 14.4748C14.9449 14.9699 15.62 15.5999 15.62 15.8249C15.62 16.095 16.9701 16.275 18.7703 16.275C20.5704 16.275 21.9205 16.095 21.9205 15.8249C21.9205 15.5999 21.5605 14.6098 21.0654 13.7098C20.6154 12.7647 19.5353 11.4146 18.6802 10.6495C17.7802 9.92944 16.295 9.02936 15.35 8.75934C14.3599 8.44431 12.4697 8.21929 11.1196 8.21929C9.76948 8.21929 7.83432 8.53432 6.84423 8.89435ZM52.6581 9.61441C53.3332 9.25438 54.4583 8.75934 55.1334 8.57932C55.8084 8.3543 57.7886 8.26429 59.4987 8.3543C61.2539 8.39931 63.2791 8.80434 63.9991 9.16437C64.7642 9.56941 66.0243 10.5595 66.8344 11.3696C67.6444 12.2246 68.6345 13.6198 69.0396 14.4748C69.4446 15.3299 69.8946 17.4001 70.2997 22.1255H53.8733L54.1433 23.1606C54.2783 23.7006 54.9984 24.6907 55.7184 25.4108C56.7535 26.3558 57.4736 26.6259 59.0487 26.6259C60.5338 26.6259 61.4339 26.3558 62.424 25.5008C63.5941 24.5107 64.1341 24.3757 66.6093 24.5107C69.1296 24.6007 69.3996 24.6907 69.2196 25.5008C69.1296 25.9958 68.5445 27.1659 67.8695 28.066C67.1944 29.0561 65.7093 30.2712 64.4492 30.9012C62.649 31.8013 61.5239 32.0263 58.9587 32.0263C57.0235 32.0263 54.9533 31.7563 54.0083 31.3063C53.0632 30.9462 51.7131 30.0912 51.038 29.4161C50.318 28.741 49.3279 27.3909 48.8328 26.4008C48.2478 25.2757 47.7977 23.3856 47.6627 21.4504C47.5277 19.3352 47.7077 17.4451 48.2028 15.7349C48.6078 14.2948 49.4629 12.4947 50.1829 11.7296C50.858 10.9195 51.9831 9.97444 52.6581 9.61441ZM78.4004 8.84934C77.4103 9.20938 76.1052 9.88443 75.4751 10.3345C74.845 10.8295 73.765 12.1796 72.9999 13.3497C71.7398 15.3749 71.6498 15.8249 71.6498 20.0553C71.6498 23.8356 71.8298 24.9157 72.5949 26.4008C73.1349 27.3909 74.305 28.8761 75.2051 29.6861C76.1052 30.4512 77.5903 31.3063 78.5354 31.5763C79.4354 31.8013 81.4606 32.0263 83.0358 32.0263C84.5659 32.0263 86.591 31.7113 87.5361 31.3063C88.4362 30.9462 89.7863 30.0912 90.4614 29.4161C91.1814 28.741 92.0365 27.706 92.3515 27.0759C92.6666 26.4459 93.0266 25.5008 93.2066 24.9607C93.4766 23.9706 93.3866 23.9256 90.5964 23.9256C87.9862 23.9256 87.5811 24.0606 86.366 25.2757C85.2409 26.4008 84.6109 26.6259 82.9457 26.6259C81.2806 26.6259 80.5605 26.3558 79.4354 25.3208C78.0853 24.1056 77.9503 23.7006 77.7703 20.9104C77.6803 18.7052 77.8153 17.4451 78.3554 16.41C78.7604 15.5999 79.6605 14.6098 80.4255 14.2498C81.1906 13.8898 82.2707 13.5747 82.9007 13.5747C83.5308 13.5747 84.4759 13.7998 85.0609 14.1148C85.601 14.3848 86.366 15.0149 86.7261 15.4199C87.2211 16.05 88.1662 16.275 90.3264 16.32C92.9816 16.41 93.2516 16.365 93.1166 15.5549C93.0266 15.1049 92.4416 13.7998 91.7665 12.6747C90.8664 11.1895 89.8763 10.3345 88.0762 9.38939C86.141 8.44431 84.9709 8.17429 82.9007 8.17429C81.4156 8.21929 79.3904 8.48931 78.4004 8.84934ZM56.7078 13.9793C56.1677 14.2044 55.3127 14.9244 54.7726 15.5545C54.2776 16.1845 53.9625 16.9496 54.0975 17.1746C54.2326 17.4446 56.2577 17.6247 58.823 17.6247C62.5133 17.6247 63.3233 17.4896 63.3233 16.9496C63.3233 16.5896 62.8733 15.7345 62.2882 15.1044C61.6132 14.3394 60.7131 13.8893 59.498 13.7993C58.5079 13.6643 57.2478 13.7543 56.7078 13.9793Z" fill="white"/>
</g>
</g>
</svg>
