<svg width="137" height="40" viewBox="0 0 137 40" fill="none" xmlns="http://www.w3.org/2000/svg">
<g clip-path="url(#clip0_18_175)">
<g clip-path="url(#clip1_18_175)">
<g clip-path="url(#clip2_18_175)">
<path d="M123 0.5H13.8068C6.95668 0.5 1.40356 6.05311 1.40356 12.9032V27.0968C1.40356 33.9469 6.95668 39.5 13.8068 39.5H123C129.85 39.5 135.404 33.9469 135.404 27.0968V12.9032C135.404 6.05311 129.85 0.5 123 0.5Z" fill="white"/>
<path d="M123 0.5H13.8068C6.95668 0.5 1.40356 6.05311 1.40356 12.9032V27.0968C1.40356 33.9469 6.95668 39.5 13.8068 39.5H123C129.85 39.5 135.404 33.9469 135.404 27.0968V12.9032C135.404 6.05311 129.85 0.5 123 0.5Z" stroke="black"/>
<path d="M69.0397 17.6073C66.6875 17.6073 64.7707 19.3964 64.7707 21.8604C64.7707 24.3093 66.6875 26.1133 69.0397 26.1133C71.3926 26.1133 73.3094 24.3093 73.3094 21.8604C73.3088 19.3964 71.392 17.6073 69.0397 17.6073ZM69.0397 24.4393C67.7507 24.4393 66.6397 23.3764 66.6397 21.8613C66.6397 20.3304 67.752 19.2833 69.0397 19.2833C70.3288 19.2833 71.4397 20.3304 71.4397 21.8613C71.4397 23.3753 70.3288 24.4393 69.0397 24.4393ZM59.7257 17.6073C57.3737 17.6073 55.4567 19.3964 55.4567 21.8604C55.4567 24.3093 57.3737 26.1133 59.7257 26.1133C62.0787 26.1133 63.9957 24.3093 63.9957 21.8604C63.9957 19.3964 62.0787 17.6073 59.7257 17.6073ZM59.7257 24.4393C58.4367 24.4393 57.3257 23.3764 57.3257 21.8613C57.3257 20.3304 58.4377 19.2833 59.7257 19.2833C61.0147 19.2833 62.1257 20.3304 62.1257 21.8613C62.1267 23.3753 61.0147 24.4393 59.7257 24.4393ZM48.6477 18.9133V20.7173H52.9657C52.8367 21.7324 52.4987 22.4733 51.9827 22.9884C51.3547 23.6164 50.3717 24.3093 48.6477 24.3093C45.9897 24.3093 43.9117 22.1664 43.9117 19.5084C43.9117 16.8504 45.9897 14.7073 48.6477 14.7073C50.0817 14.7073 51.1287 15.2713 51.9017 15.9963L53.1747 14.7233C52.0947 13.6924 50.6617 12.9033 48.6477 12.9033C45.0067 12.9033 41.9457 15.8673 41.9457 19.5084C41.9457 23.1493 45.0067 26.1133 48.6477 26.1133C50.6127 26.1133 52.0957 25.4683 53.2547 24.2603C54.4467 23.0683 54.8177 21.3923 54.8177 20.0393C54.8177 19.6213 54.7857 19.2344 54.7207 18.9124H48.6477V18.9133ZM93.9559 20.3144C93.6017 19.3644 92.5217 17.6073 90.3146 17.6073C88.1236 17.6073 86.303 19.3313 86.303 21.8604C86.303 24.2444 88.1075 26.1133 90.5236 26.1133C92.4726 26.1133 93.6004 24.9213 94.0688 24.2284L92.6185 23.2613C92.1359 23.9703 91.4746 24.4373 90.5236 24.4373C89.5739 24.4373 88.8965 24.0024 88.4617 23.1484L94.1488 20.7963L93.9559 20.3144ZM88.1559 21.7323C88.1075 20.0883 89.4288 19.2513 90.3797 19.2513C91.1204 19.2513 91.7488 19.6224 91.9585 20.1533L88.1559 21.7323ZM83.5326 25.8564H85.4004V13.3553H83.5326V25.8564ZM80.4707 18.5584H80.4068C79.9875 18.0584 79.1817 17.6073 78.1675 17.6073C76.0404 17.6073 74.092 19.4764 74.092 21.8773C74.092 24.2613 76.0404 26.1144 78.1675 26.1144C79.183 26.1144 79.9875 25.6633 80.4068 25.1484H80.4707V25.7604C80.4707 27.3873 79.6004 28.2573 78.1997 28.2573C77.0559 28.2573 76.3468 27.4364 76.0565 26.7433L74.4294 27.4204C74.8965 28.5473 76.1365 29.9333 78.1997 29.9333C80.3907 29.9333 82.2436 28.6444 82.2436 25.5024V17.8663H80.472V18.5584H80.4707ZM78.3288 24.4393C77.0397 24.4393 75.9604 23.3593 75.9604 21.8773C75.9604 20.3784 77.0397 19.2833 78.3288 19.2833C79.6004 19.2833 80.5997 20.3784 80.5997 21.8773C80.5997 23.3593 79.6004 24.4393 78.3288 24.4393ZM102.709 13.3553H98.2385V25.8564H100.104V21.1204H102.709C104.777 21.1204 106.811 19.6233 106.811 17.2384C106.811 14.8533 104.778 13.3553 102.709 13.3553ZM102.758 19.3803H100.104V15.0953H102.758C104.153 15.0953 104.945 16.2504 104.945 17.2384C104.945 18.2064 104.153 19.3803 102.758 19.3803ZM114.289 17.5853C112.938 17.5853 111.54 18.1804 110.96 19.4993L112.617 20.1904C112.971 19.4993 113.631 19.2733 114.322 19.2733C115.287 19.2733 116.267 19.8524 116.284 20.8813V21.0103C115.946 20.8173 115.222 20.5284 114.338 20.5284C112.553 20.5284 110.735 21.5093 110.735 23.3424C110.735 25.0153 112.198 26.0924 113.838 26.0924C115.093 26.0924 115.785 25.5293 116.218 24.8693H116.283V25.8344H118.085V21.0413C118.086 18.8233 116.427 17.5853 114.289 17.5853ZM114.064 24.4364C113.454 24.4364 112.6 24.1304 112.6 23.3744C112.6 22.4093 113.663 22.0393 114.58 22.0393C115.398 22.0393 115.786 22.2164 116.284 22.4573C116.138 23.6164 115.142 24.4364 114.064 24.4364ZM124.647 17.8583L122.507 23.2784H122.444L120.224 17.8583H118.214L121.543 25.4333L119.645 29.6473H121.591L126.722 17.8583H124.647ZM107.84 25.8564H109.706V13.3553H107.84V25.8564Z" fill="black"/>
<path fill-rule="evenodd" clip-rule="evenodd" d="M26.7587 14.2324L15.2371 7.55068C14.802 7.29004 14.2942 7.13965 13.7509 7.13965C12.6296 7.13965 11.6436 7.81894 11.1708 8.76855L11.2573 8.85507L21.6973 19.2928L26.7587 14.2324ZM10.8769 9.88875C10.8749 9.93107 10.8739 9.97358 10.8739 10.0162V29.9838C10.8739 30.0264 10.8749 30.0689 10.8769 30.1111L20.9902 19.9998L10.8769 9.88875ZM11.1708 31.2313C11.6437 32.181 12.6299 32.8603 13.7509 32.8603C14.2825 32.8603 14.7818 32.7166 15.2098 32.4642L15.2438 32.4443L26.7785 25.7869L21.6973 20.7069L11.2573 31.1448L11.1708 31.2313ZM27.6753 25.2694L32.3724 22.5584C33.2747 22.0713 33.8871 21.1201 33.8871 20.0232C33.8871 18.9342 33.2829 17.9877 32.3896 17.499L32.3793 17.492L27.6538 14.7515L22.4045 19.9998L27.6753 25.2694Z" fill="black"/>
</g>
</g>
</g>
<defs>
<clipPath id="clip0_18_175">
<rect width="135.484" height="40" fill="white" transform="translate(0.903564)"/>
</clipPath>
<clipPath id="clip1_18_175">
<rect width="135.484" height="40" fill="white" transform="translate(0.903564)"/>
</clipPath>
<clipPath id="clip2_18_175">
<rect width="135.484" height="40" fill="white" transform="translate(0.903564)"/>
</clipPath>
</defs>
</svg>
