<svg width="122" height="117" viewBox="0 0 122 117" fill="none" xmlns="http://www.w3.org/2000/svg">
<path fill-rule="evenodd" clip-rule="evenodd" d="M77.5 0L79.5242 5.46983C80.4561 7.98994 81.9222 10.2786 83.822 12.1786C85.7218 14.0786 88.0102 15.5451 90.5302 16.4773L96 18.5L90.5302 20.5242C88.0101 21.4561 85.7214 22.9222 83.8214 24.822C81.9214 26.7218 80.4549 29.0102 79.5227 31.5302L77.5 37L75.4758 31.5302C74.5439 29.0101 73.0778 26.7214 71.178 24.8214C69.2782 22.9214 66.9898 21.4549 64.4698 20.5227L59 18.5L64.4698 16.4758C66.9899 15.5439 69.2786 14.0778 71.1786 12.178C73.0786 10.2782 74.5451 7.98981 75.4773 5.46983L77.5 0ZM77.5 10.3184C75.5323 13.7119 72.7119 16.5323 69.3184 18.5C72.7119 20.4677 75.5323 23.2881 77.5 26.6816C79.4677 23.2881 82.2881 20.4677 85.6816 18.5C82.2881 16.5323 79.4677 13.7119 77.5 10.3184Z" fill="#115D6E"/>
<path fill-rule="evenodd" clip-rule="evenodd" d="M54 34L56.626 41.096C57.8349 44.3653 59.7369 47.3344 62.2015 49.7993C64.6661 52.2642 67.6348 54.1666 70.904 55.376L78 58L70.904 60.626C67.6347 61.8349 64.6656 63.7369 62.2007 66.2015C59.7358 68.6661 57.8334 71.6348 56.624 74.904L54 82L51.374 74.904C50.1651 71.6347 48.2631 68.6656 45.7985 66.2007C43.3339 63.7358 40.3652 61.8334 37.096 60.624L30 58L37.096 55.374C40.3653 54.1651 43.3344 52.2631 45.7993 49.7985C48.2642 47.3339 50.1666 44.3652 51.376 41.096L54 34ZM54 47.386C51.4474 51.7885 47.7885 55.4474 43.386 58C47.7885 60.5526 51.4474 64.2115 54 68.614C56.5526 64.2115 60.2115 60.5526 64.614 58C60.2115 55.4474 56.5526 51.7885 54 47.386Z" fill="#115D6E"/>
<path fill-rule="evenodd" clip-rule="evenodd" d="M96 65L98.8448 72.6873C100.154 76.2291 102.215 79.4455 104.885 82.1159C107.555 84.7862 110.771 86.8472 114.313 88.1573L122 91L114.313 93.8448C110.771 95.1545 107.554 97.215 104.884 99.885C102.214 102.555 100.153 105.771 98.8427 109.313L96 117L93.1552 109.313C91.8455 105.771 89.785 102.554 87.115 99.8841C84.4451 97.2138 81.2289 95.1528 77.6873 93.8427L70 91L77.6873 88.1552C81.2291 86.8455 84.4455 84.785 87.1159 82.115C89.7862 79.4451 91.8472 76.2289 93.1573 72.6873L96 65ZM96 79.5015C93.2346 84.2708 89.2708 88.2346 84.5015 91C89.2708 93.7654 93.2346 97.7292 96 102.498C98.7654 97.7292 102.729 93.7654 107.498 91C102.729 88.2346 98.7654 84.2708 96 79.5015Z" fill="#115D6E"/>
<path fill-rule="evenodd" clip-rule="evenodd" d="M15 14L16.6412 18.435C17.3968 20.4783 18.5856 22.334 20.1259 23.8745C21.6663 25.4151 23.5218 26.6041 25.565 27.36L30 29L25.565 30.6412C23.5217 31.3968 21.666 32.5856 20.1255 34.1259C18.5849 35.6663 17.3959 37.5218 16.64 39.565L15 44L13.3588 39.565C12.6032 37.5217 11.4144 35.666 9.87406 34.1255C8.3337 32.5849 6.47822 31.3959 4.435 30.64L0 29L4.435 27.3588C6.47833 26.6032 8.33397 25.4144 9.87454 23.8741C11.4151 22.3337 12.6041 20.4782 13.36 18.435L15 14ZM15 22.3662C13.4046 25.1178 11.1178 27.4046 8.36625 29C11.1178 30.5954 13.4046 32.8822 15 35.6337C16.5954 32.8822 18.8822 30.5954 21.6337 29C18.8822 27.4046 16.5954 25.1178 15 22.3662Z" fill="#EBF8F4"/>
<path fill-rule="evenodd" clip-rule="evenodd" d="M54 34L56.626 41.096C57.8349 44.3653 59.7369 47.3344 62.2015 49.7993C64.6661 52.2642 67.6348 54.1666 70.904 55.376L78 58L70.904 60.626C67.6347 61.8349 64.6656 63.7369 62.2007 66.2015C59.7358 68.6661 57.8334 71.6348 56.624 74.904L54 82L51.374 74.904C50.1651 71.6347 48.2631 68.6656 45.7985 66.2007C43.3339 63.7358 40.3652 61.8334 37.096 60.624L30 58L37.096 55.374C40.3653 54.1651 43.3344 52.2631 45.7993 49.7985C48.2642 47.3339 50.1666 44.3652 51.376 41.096L54 34ZM54 47.386C51.4474 51.7885 47.7885 55.4474 43.386 58C47.7885 60.5526 51.4474 64.2115 54 68.614C56.5526 64.2115 60.2115 60.5526 64.614 58C60.2115 55.4474 56.5526 51.7885 54 47.386Z" fill="#EBF8F4"/>
<g clip-path="url(#clip0_45_156)">
<path fill-rule="evenodd" clip-rule="evenodd" d="M54 34L56.626 41.096C57.8349 44.3653 59.7369 47.3344 62.2015 49.7993C64.6661 52.2642 67.6348 54.1666 70.904 55.376L78 58L70.904 60.626C67.6347 61.8349 64.6656 63.7369 62.2007 66.2015C59.7358 68.6661 57.8334 71.6348 56.624 74.904L54 82L51.374 74.904C50.1651 71.6347 48.2631 68.6656 45.7985 66.2007C43.3339 63.7358 40.3652 61.8334 37.096 60.624L30 58L37.096 55.374C40.3653 54.1651 43.3344 52.2631 45.7993 49.7985C48.2642 47.3339 50.1666 44.3652 51.376 41.096L54 34ZM54 47.386C51.4474 51.7885 47.7885 55.4474 43.386 58C47.7885 60.5526 51.4474 64.2115 54 68.614C56.5526 64.2115 60.2115 60.5526 64.614 58C60.2115 55.4474 56.5526 51.7885 54 47.386Z" fill="#115D6E"/>
</g>
<path fill-rule="evenodd" clip-rule="evenodd" d="M9.5 59L10.3206 61.2175C10.6984 62.2392 11.2928 63.167 12.063 63.9373C12.8332 64.7076 13.7609 65.3021 14.7825 65.68L17 66.5L14.7825 67.3206C13.7608 67.6984 12.833 68.2928 12.0627 69.063C11.2924 69.8332 10.6979 70.7609 10.32 71.7825L9.5 74L8.67938 71.7825C8.30159 70.7608 7.70721 69.833 6.93703 69.0627C6.16685 68.2924 5.23911 67.6979 4.2175 67.32L2 66.5L4.2175 65.6794C5.23916 65.3016 6.16698 64.7072 6.93727 63.937C7.70756 63.1668 8.30207 62.2391 8.68 61.2175L9.5 59ZM9.5 63.1831C8.7023 64.5589 7.55889 65.7023 6.18312 66.5C7.55889 67.2977 8.7023 68.4411 9.5 69.8169C10.2977 68.4411 11.4411 67.2977 12.8169 66.5C11.4411 65.7023 10.2977 64.5589 9.5 63.1831Z" fill="#EBF8F4"/>
<defs>
<clipPath id="clip0_45_156">
<rect width="24" height="48" fill="white" transform="translate(54 34)"/>
</clipPath>
</defs>
</svg>
