<svg width="461" height="434" viewBox="0 0 461 434" fill="none" xmlns="http://www.w3.org/2000/svg">
<path d="M0 33C0 19.7452 10.7452 9 24 9H351C364.255 9 375 19.7452 375 33V410C375 423.255 364.255 434 351 434H24C10.7452 434 0 423.255 0 410V33Z" fill="#115D6E"/>
<path fill-rule="evenodd" clip-rule="evenodd" d="M398.5 0L400.524 5.46983C401.456 7.98994 402.922 10.2786 404.822 12.1786C406.722 14.0786 409.01 15.5451 411.53 16.4773L417 18.5L411.53 20.5242C409.01 21.4561 406.721 22.9222 404.821 24.822C402.921 26.7218 401.455 29.0102 400.523 31.5302L398.5 37L396.476 31.5302C395.544 29.0101 394.078 26.7214 392.178 24.8214C390.278 22.9214 387.99 21.4549 385.47 20.5227L380 18.5L385.47 16.4758C387.99 15.5439 390.279 14.0778 392.179 12.178C394.079 10.2782 395.545 7.98981 396.477 5.46983L398.5 0ZM398.5 10.3184C396.532 13.7119 393.712 16.5323 390.318 18.5C393.712 20.4677 396.532 23.2881 398.5 26.6816C400.468 23.2881 403.288 20.4677 406.682 18.5C403.288 16.5323 400.468 13.7119 398.5 10.3184Z" fill="#115D6E"/>
<path fill-rule="evenodd" clip-rule="evenodd" d="M375 34L377.626 41.096C378.835 44.3653 380.737 47.3344 383.202 49.7993C385.666 52.2642 388.635 54.1666 391.904 55.376L399 58L391.904 60.626C388.635 61.8349 385.666 63.7369 383.201 66.2015C380.736 68.6661 378.833 71.6348 377.624 74.904L375 82L372.374 74.904C371.165 71.6347 369.263 68.6656 366.798 66.2007C364.334 63.7358 361.365 61.8334 358.096 60.624L351 58L358.096 55.374C361.365 54.1651 364.334 52.2631 366.799 49.7985C369.264 47.3339 371.167 44.3652 372.376 41.096L375 34ZM375 47.386C372.447 51.7885 368.788 55.4473 364.386 58C368.788 60.5527 372.447 64.2115 375 68.614C377.553 64.2115 381.212 60.5527 385.614 58C381.212 55.4473 377.553 51.7885 375 47.386Z" fill="#115D6E"/>
<path fill-rule="evenodd" clip-rule="evenodd" d="M417 65L419.845 72.6873C421.154 76.2291 423.215 79.4455 425.885 82.1159C428.555 84.7862 431.771 86.8472 435.313 88.1573L443 91L435.313 93.8448C431.771 95.1545 428.554 97.215 425.884 99.885C423.214 102.555 421.153 105.771 419.843 109.313L417 117L414.155 109.313C412.846 105.771 410.785 102.554 408.115 99.8841C405.445 97.2138 402.229 95.1528 398.687 93.8427L391 91L398.687 88.1552C402.229 86.8455 405.446 84.785 408.116 82.115C410.786 79.4451 412.847 76.2289 414.157 72.6873L417 65ZM417 79.5015C414.235 84.2708 410.271 88.2346 405.502 91C410.271 93.7654 414.235 97.7292 417 102.499C419.765 97.7292 423.729 93.7654 428.499 91C423.729 88.2346 419.765 84.2708 417 79.5015Z" fill="#115D6E"/>
<path fill-rule="evenodd" clip-rule="evenodd" d="M336 14L337.641 18.435C338.397 20.4783 339.586 22.334 341.126 23.8745C342.666 25.4151 344.522 26.6041 346.565 27.36L351 29L346.565 30.6413C344.522 31.3968 342.666 32.5856 341.125 34.1259C339.585 35.6663 338.396 37.5218 337.64 39.565L336 44L334.359 39.565C333.603 37.5217 332.414 35.666 330.874 34.1255C329.334 32.5849 327.478 31.3959 325.435 30.64L321 29L325.435 27.3588C327.478 26.6032 329.334 25.4144 330.875 23.8741C332.415 22.3337 333.604 20.4782 334.36 18.435L336 14ZM336 22.3663C334.405 25.1178 332.118 27.4046 329.366 29C332.118 30.5954 334.405 32.8822 336 35.6337C337.595 32.8822 339.882 30.5954 342.634 29C339.882 27.4046 337.595 25.1178 336 22.3663Z" fill="#EBF8F4"/>
<path fill-rule="evenodd" clip-rule="evenodd" d="M375 34L377.626 41.096C378.835 44.3653 380.737 47.3344 383.202 49.7993C385.666 52.2642 388.635 54.1666 391.904 55.376L399 58L391.904 60.626C388.635 61.8349 385.666 63.7369 383.201 66.2015C380.736 68.6661 378.833 71.6348 377.624 74.904L375 82L372.374 74.904C371.165 71.6347 369.263 68.6656 366.798 66.2007C364.334 63.7358 361.365 61.8334 358.096 60.624L351 58L358.096 55.374C361.365 54.1651 364.334 52.2631 366.799 49.7985C369.264 47.3339 371.167 44.3652 372.376 41.096L375 34ZM375 47.386C372.447 51.7885 368.788 55.4473 364.386 58C368.788 60.5527 372.447 64.2115 375 68.614C377.553 64.2115 381.212 60.5527 385.614 58C381.212 55.4473 377.553 51.7885 375 47.386Z" fill="#EBF8F4"/>
<g clip-path="url(#clip0_47_166)">
<path fill-rule="evenodd" clip-rule="evenodd" d="M375 34L377.626 41.096C378.835 44.3653 380.737 47.3344 383.202 49.7993C385.666 52.2642 388.635 54.1666 391.904 55.376L399 58L391.904 60.626C388.635 61.8349 385.666 63.7369 383.201 66.2015C380.736 68.6661 378.833 71.6348 377.624 74.904L375 82L372.374 74.904C371.165 71.6347 369.263 68.6656 366.798 66.2007C364.334 63.7358 361.365 61.8334 358.096 60.624L351 58L358.096 55.374C361.365 54.1651 364.334 52.2631 366.799 49.7985C369.264 47.3339 371.167 44.3652 372.376 41.096L375 34ZM375 47.386C372.447 51.7885 368.788 55.4473 364.386 58C368.788 60.5527 372.447 64.2115 375 68.614C377.553 64.2115 381.212 60.5527 385.614 58C381.212 55.4473 377.553 51.7885 375 47.386Z" fill="#115D6E"/>
</g>
<path fill-rule="evenodd" clip-rule="evenodd" d="M330.5 59L331.321 61.2175C331.698 62.2392 332.293 63.167 333.063 63.9373C333.833 64.7076 334.761 65.3021 335.782 65.68L338 66.5L335.782 67.3206C334.761 67.6984 333.833 68.2928 333.063 69.063C332.292 69.8332 331.698 70.7609 331.32 71.7825L330.5 74L329.679 71.7825C329.302 70.7608 328.707 69.833 327.937 69.0627C327.167 68.2924 326.239 67.6979 325.217 67.32L323 66.5L325.217 65.6794C326.239 65.3016 327.167 64.7072 327.937 63.937C328.708 63.1668 329.302 62.2391 329.68 61.2175L330.5 59ZM330.5 63.1831C329.702 64.5589 328.559 65.7023 327.183 66.5C328.559 67.2977 329.702 68.4411 330.5 69.8169C331.298 68.4411 332.441 67.2977 333.817 66.5C332.441 65.7023 331.298 64.5589 330.5 63.1831Z" fill="#EBF8F4"/>
<defs>
<clipPath id="clip0_47_166">
<rect width="24" height="48" fill="white" transform="translate(375 34)"/>
</clipPath>
</defs>
</svg>
